<?xml version="1.0" encoding="utf-8"?>
<!-- Generator: Adobe Illustrator 19.2.0, SVG Export Plug-In . SVG Version: 6.00 Build 0)  -->
<svg version="1.1" id="loading" xmlns="http://www.w3.org/2000/svg" xmlns:xlink="http://www.w3.org/1999/xlink" x="0px" y="0px"
	 viewBox="0 0 180 208" enable-background="new 0 0 180 208" xml:space="preserve">
<g>
	<path fill="none" d="M16,92c4.4099,0,8-3.588,8-8s-3.5901-8-8-8c-4.4101,0-8,3.588-8,8S11.5899,92,16,92z"/>
	<path fill="none" d="M20,136c-6.6173,0-12,5.3828-12,12s5.3827,12,12,12c6.6171,0,12-5.3828,12-12S26.6171,136,20,136z"/>
	<path fill="none" d="M80,64c15.4375,0,28-12.5604,28-28S95.4375,8,80,8C64.5623,8,52,20.5604,52,36S64.5623,64,80,64z"/>
	<path fill="none" d="M76,168c-8.8245,0-16,7.1776-16,16s7.1755,16,16,16c8.8243,0,16-7.1776,16-16S84.8243,168,76,168z"/>
	<path fill="none" d="M132,132c-11.0273,0-20,8.9728-20,20s8.9727,20,20,20c11.0271,0,20-8.9728,20-20S143.0271,132,132,132z"/>
	<path fill="none" d="M148,56c-13.2345,0-24,10.7656-24,24s10.7655,24,24,24c13.2343,0,24-10.7656,24-24S161.2343,56,148,56z"/>
	<path d="M80,72c19.8515,0,36-16.1504,36-36S99.8515,0,80,0C60.1483,0,44,16.1504,44,36S60.1483,72,80,72z M80,8
		c15.4375,0,28,12.5604,28,28S95.4375,64,80,64c-15.4377,0-28-12.5604-28-28S64.5623,8,80,8z"/>
	<path d="M148,48c-17.6445,0-32,14.3556-32,32s14.3555,32,32,32c17.6443,0,32-14.3556,32-32S165.6443,48,148,48z M148,104
		c-13.2345,0-24-10.7656-24-24s10.7655-24,24-24c13.2343,0,24,10.7656,24,24S161.2343,104,148,104z"/>
	<path d="M132,124c-15.4377,0-28,12.5604-28,28s12.5623,28,28,28c15.4375,0,28-12.5604,28-28S147.4375,124,132,124z M132,172
		c-11.0273,0-20-8.9728-20-20s8.9727-20,20-20c11.0271,0,20,8.9728,20,20S143.0271,172,132,172z"/>
	<path d="M76,160c-13.2345,0-24,10.7656-24,24s10.7655,24,24,24c13.2343,0,24-10.7656,24-24S89.2343,160,76,160z M76,200
		c-8.8245,0-16-7.1776-16-16s7.1755-16,16-16c8.8243,0,16,7.1776,16,16S84.8243,200,76,200z"/>
	<path d="M20,128c-11.0273,0-20,8.9728-20,20s8.9727,20,20,20c11.0271,0,20-8.9728,20-20S31.0271,128,20,128z M20,160
		c-6.6173,0-12-5.3828-12-12s5.3827-12,12-12c6.6171,0,12,5.3828,12,12S26.6171,160,20,160z"/>
	<path d="M16,100c8.8243,0,16-7.1776,16-16s-7.1757-16-16-16C7.1755,68,0,75.1776,0,84S7.1755,100,16,100z M16,76
		c4.4099,0,8,3.588,8,8s-3.5901,8-8,8c-4.4101,0-8-3.588-8-8S11.5899,76,16,76z"/>
</g>
</svg>
